<svg width="24" height="24" viewBox="0 0 24 24" fill="none" xmlns="http://www.w3.org/2000/svg">
<path d="M21.5 12.2C21.2 12.2 21 12 21 11.7C21 10.5 18.1 6 12 6C5.9 6 3 10.6 3 11.7C3 12 2.8 12.2 2.5 12.2C2.2 12.2 2 12 2 11.7C2 10.1 5.1 5 12 5C18.9 5 22 10.1 22 11.7C22 12 21.8 12.2 21.5 12.2Z" fill="#E0BEA2"/>
<path d="M12 18.4C5.1 18.4 2 13.3 2 11.7C2 11.4 2.2 11.2 2.5 11.2C2.8 11.2 3 11.4 3 11.7C3 12.9 5.9 17.4 12 17.4C18.1 17.4 21 12.8 21 11.7C21 11.4 21.2 11.2 21.5 11.2C21.8 11.2 22 11.4 22 11.7C22 13.3 18.9 18.4 12 18.4Z" fill="#E0BEA2"/>
<path d="M11.9999 15.8C9.7999 15.8 7.8999 14 7.8999 11.7C7.8999 9.39998 9.6999 7.59998 11.9999 7.59998C14.2999 7.59998 16.0999 9.39998 16.0999 11.7C16.0999 14 14.1999 15.8 11.9999 15.8ZM11.9999 8.59998C10.2999 8.59998 8.8999 9.99998 8.8999 11.7C8.8999 13.4 10.2999 14.8 11.9999 14.8C13.6999 14.8 15.0999 13.4 15.0999 11.7C15.0999 9.99998 13.6999 8.59998 11.9999 8.59998Z" fill="#E0BEA2"/>
<path d="M2.64078 21.175C2.52427 21.175 2.29126 21.175 2.17476 21.075C1.94175 20.875 1.94175 20.575 2.17476 20.375L22.3301 3.075C22.5631 2.975 23.0291 2.975 23.2621 3.075C23.4951 3.175 23.4951 3.575 23.2621 3.775L3.1068 21.075C2.99029 21.175 2.75728 21.175 2.64078 21.175Z" fill="#E0BEA2"/>
</svg>
