<svg width="19" height="19" viewBox="0 0 19 19" fill="none" xmlns="http://www.w3.org/2000/svg">
<g clip-path="url(#clip0_1_10)">
<path d="M9.5001 2.375C13.7688 2.375 17.3202 5.44667 18.0651 9.5C17.321 13.5533 13.7688 16.625 9.5001 16.625C5.23143 16.625 1.68002 13.5533 0.935059 9.5C1.67923 5.44667 5.23143 2.375 9.5001 2.375ZM9.5001 15.0417C11.1147 15.0413 12.6813 14.4929 13.9436 13.4862C15.2059 12.4795 16.0891 11.074 16.4486 9.5C16.0877 7.9272 15.204 6.52334 13.9418 5.51794C12.6797 4.51254 11.1138 3.96508 9.5001 3.96508C7.88644 3.96508 6.32052 4.51254 5.05836 5.51794C3.79619 6.52334 2.91246 7.9272 2.55164 9.5C2.91113 11.074 3.7943 12.4795 5.05659 13.4862C6.31888 14.4929 7.88552 15.0413 9.5001 15.0417ZM9.5001 13.0625C8.55527 13.0625 7.64913 12.6872 6.98103 12.0191C6.31293 11.351 5.9376 10.4448 5.9376 9.5C5.9376 8.55517 6.31293 7.64903 6.98103 6.98093C7.64913 6.31283 8.55527 5.9375 9.5001 5.9375C10.4449 5.9375 11.3511 6.31283 12.0192 6.98093C12.6873 7.64903 13.0626 8.55517 13.0626 9.5C13.0626 10.4448 12.6873 11.351 12.0192 12.0191C11.3511 12.6872 10.4449 13.0625 9.5001 13.0625ZM9.5001 11.4792C10.025 11.4792 10.5284 11.2706 10.8996 10.8995C11.2707 10.5283 11.4793 10.0249 11.4793 9.5C11.4793 8.97509 11.2707 8.47168 10.8996 8.10052C10.5284 7.72935 10.025 7.52083 9.5001 7.52083C8.97519 7.52083 8.47178 7.72935 8.10062 8.10052C7.72945 8.47168 7.52093 8.97509 7.52093 9.5C7.52093 10.0249 7.72945 10.5283 8.10062 10.8995C8.47178 11.2706 8.97519 11.4792 9.5001 11.4792Z" fill="#E0BEA2"/>
</g>
<defs>
<clipPath id="clip0_1_10">
<rect width="19" height="19" fill="white"/>
</clipPath>
</defs>
</svg>
